<svg xmlns="http://www.w3.org/2000/svg" viewBox="0 0 750 500"><defs><style>.cls-1,.cls-12,.cls-26,.cls-27,.cls-28,.cls-30{fill:#fff;}.cls-2,.cls-22,.cls-31{fill:#b3e0f4;}.cls-13,.cls-15,.cls-16,.cls-17,.cls-19,.cls-2,.cls-21,.cls-22,.cls-26,.cls-27,.cls-28,.cls-29,.cls-3,.cls-30,.cls-4,.cls-5,.cls-6,.cls-8,.cls-9{stroke:#002d6e;}.cls-13,.cls-15,.cls-17,.cls-18,.cls-19,.cls-2,.cls-21,.cls-23,.cls-26,.cls-27,.cls-29,.cls-31{stroke-miterlimit:10;}.cls-21,.cls-3{fill:#52a2d8;}.cls-10,.cls-12,.cls-16,.cls-22,.cls-24,.cls-28,.cls-3,.cls-30,.cls-4,.cls-5,.cls-6,.cls-7,.cls-8,.cls-9{stroke-linejoin:round;}.cls-4{fill:#3177bb;}.cls-17,.cls-29,.cls-5,.cls-8{fill:none;}.cls-10,.cls-24,.cls-6,.cls-7,.cls-9{fill:#dfb28a;}.cls-12,.cls-23,.cls-24,.cls-7{stroke:#972c23;}.cls-15,.cls-16,.cls-17,.cls-19,.cls-24,.cls-27,.cls-28,.cls-8,.cls-9{stroke-linecap:round;}.cls-10,.cls-18{stroke:#040404;}.cls-11,.cls-13,.cls-15,.cls-16{fill:#00439e;}.cls-14,.cls-18{fill:#040404;}.cls-19{fill:#113d72;}.cls-20{fill:#972c23;}.cls-23{fill:#eddcd4;}.cls-25{fill:#002d6e;}.cls-31{stroke:#00439e;}</style></defs><g id="BACKGROUND"><rect class="cls-1" y="-2.14" width="750" height="500"/></g><g id="OBJECTS"><rect class="cls-2" x="283.94" y="75.88" width="226.69" height="137.69"/><rect class="cls-3" x="276.99" y="75.88" width="226.69" height="137.69"/><rect class="cls-2" x="331.49" y="41.38" width="117.69" height="206.69" transform="translate(535.06 -245.62) rotate(90)"/><path class="cls-4" d="M296.51,72.4h5.7a1.23,1.23,0,0,1,1.23,1.23v2.25a0,0,0,0,1,0,0h-8.16a0,0,0,0,1,0,0V73.63A1.23,1.23,0,0,1,296.51,72.4Z"/><path class="cls-4" d="M476,72.4h5.7a1.23,1.23,0,0,1,1.23,1.23v2.25a0,0,0,0,1,0,0h-8.16a0,0,0,0,1,0,0V73.63A1.23,1.23,0,0,1,476,72.4Z"/><polyline class="cls-5" points="301.71 184.02 301.71 188.12 477.07 188.12 477.07 184.02"/><line class="cls-6" x1="330.93" y1="184.02" x2="330.93" y2="188.12"/><line class="cls-6" x1="360.16" y1="184.02" x2="360.16" y2="188.12"/><line class="cls-7" x1="389.39" y1="184.02" x2="389.39" y2="188.12"/><line class="cls-6" x1="418.62" y1="184.02" x2="418.62" y2="188.12"/><line class="cls-6" x1="447.85" y1="184.02" x2="447.85" y2="188.12"/><line class="cls-8" x1="450.43" y1="119.92" x2="301.71" y2="179.63"/><polyline class="cls-8" points="443.58 117.16 450.7 119.81 448.06 126.93"/><line class="cls-5" x1="389.39" y1="144.72" x2="389.39" y2="186.46"/><line class="cls-8" x1="389.09" y1="156.76" x2="425.57" y2="156.76"/><rect class="cls-3" x="425.57" y="152.24" width="37.13" height="9.03"/><rect class="cls-3" x="305.33" y="100.34" width="34.75" height="6.24"/><line class="cls-9" x1="305.33" y1="113.23" x2="318.77" y2="113.23"/><line class="cls-9" x1="313.2" y1="118.6" x2="324.34" y2="118.6"/><line class="cls-9" x1="322.26" y1="113.23" x2="330.99" y2="113.23"/><line class="cls-9" x1="305.4" y1="118.6" x2="310.13" y2="118.6"/><line class="cls-9" x1="334.47" y1="113.23" x2="339.19" y2="113.23"/><path class="cls-6" d="M353.54,135.27l5.69-2.12a1.91,1.91,0,0,0,.62-.39l4.1-3.83.23-.18a2.28,2.28,0,0,1,.73-.29c.42-.08,4.75.08,10.65.45a48.08,48.08,0,0,1,.73,8.85,8,8,0,0,1-.77,3.56,6.23,6.23,0,0,1-3.47,2.9,10.92,10.92,0,0,1-7.68.05l-.76-.27-6.24,2.22Z"/><path class="cls-6" d="M363.61,144a2.77,2.77,0,0,1,1.73-3.73s-2.7-2.12-.32-3.73"/><path class="cls-9" d="M374.62,139.45s-2.86,2.44-9.28.82"/><path class="cls-9" d="M373.47,135.78a12.5,12.5,0,0,1-8,.55"/><line class="cls-10" x1="363.68" y1="146.69" x2="372.75" y2="90.72"/><path class="cls-9" d="M365.07,129.82s8.27.55,7.72,2.54-5.73,2.19-5.73,2.19-.21,2.13-4.61,2.58"/><path class="cls-11" d="M290.21,133.61q4.55,4.11,9.19,8.24,10.19,9,20.24,17.55L353,133.09q5.46,6.3,10.91,12.59a200,200,0,0,1-29.24,28.71c-12.8,10.2-17.33,11.15-20.75,11.2,0,0-5.54.06-27-12.21Q288.57,153.49,290.21,133.61Z"/><path class="cls-12" d="M259,129.2q4.67,55.53,9.34,111.06l19.07.16L275.25,129.16c-2.5-.24-4.85-.29-6.93-.33A62.85,62.85,0,0,0,259,129.2Z"/><path class="cls-13" d="M227.27,239.91l41,.35Q263.61,184.73,259,129.2a31.48,31.48,0,0,0-7,1.47l-.2.07a30.7,30.7,0,0,0-10.56,6c-.3.27-.59.56-.88.86-5.51,5.8-6.61,13-7.16,17C228.85,185.2,227.48,232.12,227.27,239.91Z"/><path class="cls-13" d="M275.25,129.16q2.69,23.37,4.74,48.08,2.63,32.13,3.8,62.26c3.72.47,7.78.83,12.15,1,4.13.16,8,.12,11.59-.05q-.18-17.12-1-35.22-1-21.58-2.74-41.72A35.72,35.72,0,0,0,301.73,150c-1.08-3-4.05-10.88-11.75-15.9a32.15,32.15,0,0,0-9.84-4.14A41.91,41.91,0,0,0,275.25,129.16Z"/><path class="cls-9" d="M259.16,131.48l-2.59-27.57H272.4L275,131.48s-.43,4.55-6,5.09S259.16,131.48,259.16,131.48Z"/><path class="cls-6" d="M280.54,127.57c-9.28,2.24-19-6.26-21.5-8.63a20.53,20.53,0,0,1-5.69-9.7c-.4-1.55-2.22-8.71,2.3-15.41a18.82,18.82,0,0,1,12.85-7.78,17.72,17.72,0,0,1,10.78,2.23c6.92,4.09,8.39,11.92,9,15,.31,1.7,3.22,18.4-4.95,23.22A9.49,9.49,0,0,1,280.54,127.57Z"/><path class="cls-14" d="M246.93,103.49c.82,5.11,3.88,13.73,8.92,14.1.45,0,2.37.6,2.41-.51.39-10.32.89-13.46,1.37-13.47s1.36,4.22,2.07,4.16.93-3.77,1-8.47a4.41,4.41,0,0,0,2.36-1.16,4.73,4.73,0,0,0,1.34-3.65C274.93,92,280,93.13,283,94.75c1.22.65,2.57,1.61,3.65,1.07,2.38-1.18,2.56-9.08-.89-10.6-1.65-.73-3.63.24-4.43.7a17.27,17.27,0,0,0-7.78-4.62c-9.25-2.48-20.58,3.57-20.8,8.66a3.67,3.67,0,0,0,.11,1.07,11.59,11.59,0,0,0-5.77,6.22A11.75,11.75,0,0,0,246.93,103.49Z"/><path class="cls-14" d="M284.41,108.26c.11,1.25-.06,2.29-.37,2.31s-.65-1-.75-2.21.06-2.29.37-2.31S284.31,107,284.41,108.26Z"/><path class="cls-14" d="M274,109.15c.1,1.25-.1,2.29-.45,2.32s-.72-1-.83-2.21.09-2.28.45-2.31S273.85,107.9,274,109.15Z"/><polyline class="cls-9" points="280.75 106.05 282.16 113.7 279.26 113.95"/><path class="cls-9" d="M277.25,119.32s-3.15,1.3-4.93-1.37"/><path class="cls-9" d="M259.62,114c-1,.08-2.07-2.26-2.33-5.24s.38-5.47,1.41-5.56,2.07,2.26,2.33,5.24a16.48,16.48,0,0,1,.05,1.7"/><path class="cls-15" d="M258.62,125.7l-10.26,7.52,4.15,8.79-5.7,5.94,15.65,29.24"/><path class="cls-15" d="M274.74,128.76l12.77,9.94-3.7,6.6,7.6,5.29q-5.36,12.67-10.7,25.36"/><path class="cls-16" d="M241.15,136.72A191.14,191.14,0,0,0,222.84,160c-11.34,16.94-12.92,27.1-14.8,37.61-1.4,7.83,6.29,14.82,16.29,14.82h22.36Q243.92,174.55,241.15,136.72Z"/><path class="cls-17" d="M238.12,204.23l-2.63-14.94a5.4,5.4,0,0,0-6.2-4.39L216.5,187"/><polygon class="cls-2" points="282.65 208.25 245.17 208.25 234.56 157.37 272.05 157.37 282.65 208.25"/><polygon class="cls-6" points="234.94 189.09 238.28 181.29 250.48 179.24 251.53 181.66 242.74 184.88 242.68 186.36 255.49 188.16 255.49 192.87 253.32 192.87 253.63 196.95 250.41 197.94 250.41 201.1 237.16 201.1 234.94 189.09"/><path class="cls-9" d="M253.58,192.87c-1.79-.05-3.65-.14-5.58-.28-1.66-.12-3.27-.27-4.81-.44"/><path class="cls-9" d="M250.57,197.9a38.74,38.74,0,0,1-4.8,0,40.09,40.09,0,0,1-4.3-.53"/><path class="cls-14" d="M300.75,388V399.1L320.7,405a2.41,2.41,0,0,1,1.73,2.31h0a2.4,2.4,0,0,1-2.4,2.41l-39.74.26q.87-11.34,1.75-22.67Z"/><path class="cls-14" d="M253,389.38v10.41l18.68,5.49a2.25,2.25,0,0,1,1.62,2.16h0a2.26,2.26,0,0,1-2.24,2.26l-37.22.24q.81-10.62,1.64-21.23Z"/><path class="cls-18" d="M230,392.93,233,240l42.21-.05v0l30.61,0-2.39,153h-25l-9.87-102.26L255,392.93Z"/><line class="cls-19" x1="305.28" y1="182.81" x2="303.87" y2="164.23"/><rect class="cls-2" x="539.98" y="323.02" width="63.97" height="7.38"/><rect class="cls-2" x="539.98" y="330.4" width="63.97" height="84.83"/><rect class="cls-2" x="539.98" y="406.92" width="63.97" height="8.32"/><rect class="cls-2" x="589.54" y="404.51" width="17.11" height="4.81"/><rect class="cls-3" x="582.24" y="404.51" width="11.94" height="4.81"/><rect class="cls-18" x="558.24" y="323.02" width="13.72" height="92.22"/><rect class="cls-2" x="130.25" y="251.79" width="444.83" height="13.13"/><rect class="cls-3" x="130.25" y="251.79" width="201.03" height="13.13"/><rect class="cls-3" x="378.78" y="264.92" width="13.72" height="150.32"/><polygon class="cls-20" points="392.51 264.92 392.51 269.97 378.79 276.32 378.79 264.92 392.51 264.92"/><rect class="cls-3" x="136.41" y="264.92" width="13.72" height="150.32"/><polygon class="cls-18" points="150.13 264.92 150.13 269.97 136.41 276.32 136.41 264.92 150.13 264.92"/><rect class="cls-3" x="309.8" y="264.92" width="13.72" height="150.32"/><polygon class="cls-18" points="323.52 264.92 323.52 269.97 309.8 276.32 309.8 264.92 323.52 264.92"/><rect class="cls-3" x="552.18" y="264.92" width="13.72" height="150.32"/><polygon class="cls-18" points="565.9 264.92 565.9 269.97 552.18 276.32 552.18 264.92 565.9 264.92"/><polygon class="cls-21" points="452.64 251.79 502.29 251.79 494.44 219.74 444.79 219.74 452.64 251.79"/><polygon class="cls-22" points="493.53 247.99 487.54 223.54 449.63 223.54 455.62 247.99 493.53 247.99"/><path class="cls-23" d="M496.57,235.76a1.44,1.44,0,0,1-1.44,1.85,2.42,2.42,0,0,1-2.24-1.85,1.44,1.44,0,0,1,1.44-1.84A2.42,2.42,0,0,1,496.57,235.76Z"/><path class="cls-24" d="M494,193.64l1.34,9.67a7.28,7.28,0,0,0,2.18,4.29c3.8,3.6,8.83,5.08,13.25,3.79l.11,0a7.31,7.31,0,0,0,4.34-10.12L510.4,191"/><path class="cls-6" d="M513.21,177.36a21.08,21.08,0,0,1-5,10.36c-5.1,8.68-14.2,12.84-21.11,10.64-5.63-1.8-8.26-7.36-9.38-12.91l-2.52-1.11,1.79-6.7c0-1.26.07-2.38.16-3.29.33-3.2,1.15-11.28,7.83-16a17.91,17.91,0,0,1,10.76-3.19,19.14,19.14,0,0,1,13.73,6.79C514.7,168.31,513.47,175.76,513.21,177.36Z"/><path class="cls-25" d="M479.36,177.89c0,1.28-.2,2.32-.44,2.32s-.45-1-.45-2.32.2-2.32.45-2.32S479.36,176.61,479.36,177.89Z"/><path class="cls-9" d="M488,186.32c1.06,0,1.92-2.47,1.92-5.52s-.86-5.53-1.92-5.53-1.91,2.48-1.91,5.53a16.18,16.18,0,0,0,.1,1.75"/><path class="cls-14" d="M501.13,392.48v9.75l-17.49,5.13a2.11,2.11,0,0,0-1.52,2h0a2.12,2.12,0,0,0,2.1,2.12l34.85.22q-.77-9.94-1.54-19.88Z"/><polygon class="cls-11" points="484.49 279.01 499.46 392.48 519.78 392.48 519.78 280.92 484.49 279.01"/><polygon class="cls-25" points="490.02 320.9 491.74 333.92 519.78 320.9 519.78 310.22 490.02 310.22 490.02 320.9"/><path class="cls-14" d="M466.92,392.48v9.75l-17.49,5.13a2.12,2.12,0,0,0-1.52,2h0a2.13,2.13,0,0,0,2.11,2.12l34.84.22-1.53-19.88Z"/><polygon class="cls-11" points="450.29 279.01 465.26 392.48 485.58 392.48 485.58 280.92 450.29 279.01"/><path class="cls-25" d="M485.58,290l-28.83.38,28.83,41.48Z"/><path class="cls-11" d="M450.29,279a11,11,0,0,0,11,11h72.81a11.21,11.21,0,0,0,11.1-12.77c-.32-2.3-1.58-10-1.9-12.28l-82.43,3.11a11,11,0,0,0-10.56,11Z"/><path class="cls-26" d="M516.19,197.09l-1.94-3.28a2.28,2.28,0,0,0-1.37-1.07,31,31,0,0,0-9.14-1.05A31.56,31.56,0,0,0,493.19,194a2.43,2.43,0,0,0-1.31,1.36l-1.23,3a76.34,76.34,0,0,1,13.41-1.71A74.5,74.5,0,0,1,516.19,197.09Z"/><path class="cls-26" d="M557.93,251.51H545.76a154.93,154.93,0,0,1-1.13,23.92h-62a4.84,4.84,0,0,1-1.63-2.24,5.5,5.5,0,0,1,.89-4.85L477.2,251.8H439.06C436.39,241.05,468,211.58,468,211.58c3.1-2.87,18.59-16.69,41.11-15.35q.79,0,1.56.12a46.64,46.64,0,0,1,32.57,18.09C551.88,225.61,564,243.86,557.93,251.51Z"/><path class="cls-27" d="M477.2,251.8Q474,241,470.77,230.11"/><line class="cls-28" x1="475.2" y1="245.04" x2="468.63" y2="238.75"/><path class="cls-14" d="M522.19,181c1.27,2.39-4.86,10-12.92,12a18,18,0,0,1-10.22-.48c-8-2.8-10.9-10.36-11.34-11.54a7.67,7.67,0,0,1-1.11,1,3.07,3.07,0,0,1-1.76.56c-1.11-.17-1.74-2.07-2.13-3.68a31.07,31.07,0,0,1-.62-10.16c-2.52,3.25-3.87,3.84-4.64,3.56-2.11-.78-2.47-9.14,1.82-14.28a12.23,12.23,0,0,1,3.08-2.64c-2.78-1.1-4.15-2.11-4.09-3q.12-2.07,9.8-3.57c-1.42-1.51-1.57-2.34-1.37-2.82,1.14-2.66,15.47-.67,26.5,6.59,3.43,2.27,5.73,3.83,7.36,6.9,4.58,8.58-1.54,19.09-2.46,20.61C521,179.83,521.88,180.42,522.19,181Z"/><path class="cls-3" d="M474.37,320.9h69.42a5.31,5.31,0,0,0,5.31-5.31h0a5.32,5.32,0,0,0-5.31-5.32H474.37a5.32,5.32,0,0,0-5.32,5.32h0A5.32,5.32,0,0,0,474.37,320.9Z"/><rect class="cls-2" x="499.24" y="218.52" width="64.24" height="64.24" rx="10.68" transform="translate(1062.72 501.29) rotate(180)"/><path class="cls-2" d="M465.83,310.27h87.5a10.18,10.18,0,0,0,10.15-10.15h0A10.18,10.18,0,0,0,553.33,290h-87.5a10.18,10.18,0,0,0-10.15,10.15h0A10.18,10.18,0,0,0,465.83,310.27Z"/><path class="cls-3" d="M507.39,320.9h24.07A13.88,13.88,0,0,0,545.32,307V260a5.34,5.34,0,0,0-10.68,0V307a3.19,3.19,0,0,1-3.18,3.19H507.39a5.34,5.34,0,0,0,0,10.68Z"/><rect class="cls-3" x="529.59" y="248.73" width="20.78" height="20.78" rx="3.41" transform="translate(1079.96 518.24) rotate(180)"/><line class="cls-28" x1="534.81" y1="251.59" x2="534.81" y2="266.64"/><path class="cls-2" d="M541.59,412.1l-26.19-11V325.23l-11.76,5.44v70.45l-26.08,11a1.63,1.63,0,0,0,.64,3.13H541A1.63,1.63,0,0,0,541.59,412.1Z"/><polygon class="cls-23" points="515.4 320.9 515.4 325.23 503.64 330.67 503.64 320.9 515.4 320.9"/><polygon class="cls-18" points="515.4 320.9 515.4 325.23 503.64 330.67 503.64 320.9 515.4 320.9"/><polygon class="cls-2" points="303.89 249.04 243.65 249.04 253.99 206.83 314.23 206.83 303.89 249.04"/><polygon class="cls-3" points="250.03 244.04 257.91 211.83 307.86 211.83 299.97 244.04 250.03 244.04"/><rect class="cls-3" x="213.06" y="249.04" width="90.83" height="2.74"/><rect class="cls-2" x="268.07" y="249.04" width="35.82" height="2.74"/><rect class="cls-3" x="297.94" y="229.95" width="17.64" height="21.84"/><path class="cls-29" d="M297.94,233.3c2.2,0,2.2,2,4.4,2s2.21-2,4.41-2,2.21,2,4.42,2,2.2-2,4.41-2"/><path class="cls-29" d="M297.94,237.83c2.2,0,2.2,2,4.4,2s2.21-2,4.41-2,2.21,2,4.42,2,2.2-2,4.41-2"/><path class="cls-29" d="M297.94,242.35c2.2,0,2.2,2,4.4,2s2.21-2,4.41-2,2.21,2,4.42,2,2.2-2,4.41-2"/><path class="cls-29" d="M297.94,246.88c2.2,0,2.2,2,4.4,2s2.21-2,4.41-2,2.21,2,4.42,2,2.2-2,4.41-2"/><path class="cls-6" d="M228,181.32l-1.95,1c-.71,6.45-3.17,13.92-9.87,16.07-6.91,2.21-16-2-21.11-10.64a21,21,0,0,1-4.94-10.35c-.27-1.61-1.5-9,3.68-15.47a19.18,19.18,0,0,1,13.73-6.79,18,18,0,0,1,10.76,3.2c6.68,4.76,7.5,12.84,7.83,16.05Z"/><path class="cls-14" d="M224.74,174.39c0,1.28-.2,2.31-.44,2.31s-.45-1-.45-2.31.2-2.32.45-2.32S224.74,173.11,224.74,174.39Z"/><path class="cls-6" d="M192.41,211.34c-3.14-1.86-4.82-5.89-4.34-10.13,1-2.17,2.09-4.46,3.39-6.83a94.36,94.36,0,0,1,5.39-8.69,8.12,8.12,0,0,1,6.49-1.41,8.26,8.26,0,0,1,5.31,4.25,7.08,7.08,0,0,1,.74,4.39L208,203.29a7.93,7.93,0,0,1-2.18,4.29C203.13,210.84,197.12,214.11,192.41,211.34Z"/><path class="cls-14" d="M184.44,174.56a28.17,28.17,0,0,0,3.14,10.82c-2.52,1.85-2.74,3.22-2.67,3.92.29,3.06,7.06,4.72,11,5.08,2.62.23,8.56.77,14-3.39a18.6,18.6,0,0,0,6.95-12.86c.17.2,1.81,2,2.86,1.59.51-.22.88-1,.88-2.72a104.73,104.73,0,0,0-.62-10.78,21.43,21.43,0,0,0,4.7-3.1,9.21,9.21,0,0,0,2.16-7.51c-.14-.75-.93-4.7-3.83-5.25-2.33-.45-4.29,1.63-4.5,1.86a26.31,26.31,0,0,0-10.62-2.61c-2.05-.05-12.07-.3-18.65,7.37C183.55,163.55,184.21,171.7,184.44,174.56Z"/><path class="cls-9" d="M216.5,183.49c-1.05,0-1.91-2.47-1.91-5.52s.86-5.53,1.91-5.53,1.92,2.48,1.92,5.53a16,16,0,0,1-.1,1.73"/><path class="cls-14" d="M203.61,392.47V403l18.91,5.55a2.28,2.28,0,0,1,1.64,2.2h0a2.28,2.28,0,0,1-2.27,2.28l-37.68.25q.84-10.75,1.66-21.5Z"/><polygon class="cls-11" points="218.79 279 203.82 392.46 183.5 392.46 183.5 280.9 218.79 279"/><polygon class="cls-25" points="183.5 318.19 183.5 337.02 213.05 322.51 214.66 310.27 183.5 318.19"/><path class="cls-14" d="M248.56,392.47V403l18.92,5.55a2.3,2.3,0,0,1,1.64,2.2h0a2.29,2.29,0,0,1-2.27,2.28l-37.68.25q.83-10.75,1.66-21.5Z"/><path class="cls-11" d="M264.21,280.48a43.48,43.48,0,0,1-11,18.24L168.85,290a11.21,11.21,0,0,1-11.11-12.77c.33-2.3,1.58-10,1.91-12.28l94,4.59a11,11,0,0,1,10.56,11Z"/><path class="cls-11" d="M264.21,280.48l-14.73,112H229.17V280.9Z"/><path class="cls-25" d="M229.52,290l23.71-.16-24.06,46.66Z"/><path class="cls-6" d="M275,239.18a1.29,1.29,0,0,0,0,.19c.13,1.3.82,8.77-.62,8.58s-2-7.26-2-7.26l2.64-1.44"/><path class="cls-6" d="M271.52,238.45l0,.19c.18,1.31,1.16,8.81-.53,8.59-1.85-.24-2.56-7.33-2.56-7.33l3.07-1.39"/><path class="cls-6" d="M253,241.82a10.39,10.39,0,0,1,4.27-5.22,9,9,0,0,1,1.34-.63,21,21,0,0,1,8.25-1.72,15,15,0,0,1,11.42,5.08,2.49,2.49,0,0,1,.16.39,34.83,34.83,0,0,0,.76,4.2c.48,2.07,1,3.78.26,4.32a.74.74,0,0,1-.4.14c-1.53.17-3.31-4.18-3.6-4.9l-1.94-1.19a5.57,5.57,0,0,1-1.45,2.3,5.82,5.82,0,0,1-3,1.42c-2.44.5-8.65.36-16.81-.62A11.48,11.48,0,0,1,253,241.82Z"/><path class="cls-26" d="M249,251.79a52,52,0,0,0,12.78-1.2c4-.9,4.86-2,5.23-2.45,2-2.41,1.52-10.44-3.3-14.2-1.53-1.2-2.2-.93-6.17-2.46a56.46,56.46,0,0,1-8.77-4.29Q248.85,239.49,249,251.79Z"/><path class="cls-30" d="M258.54,243.12a10.46,10.46,0,0,1-5.29,7.57c-6.64,3.49-16.27-2.74-21.58-6.17-1.58-1-2.83-2-3.68-2.63q-2.82,13-5.65,25.91a7.1,7.1,0,0,1,2.22,4.19,7,7,0,0,1-.53,3.83l-65.73-.41a154.75,154.75,0,0,1-1.13-23.91H145a69.11,69.11,0,0,1,20.88-44.95c.6-.58,1.11-1.05,1.47-1.38a54.11,54.11,0,0,1,26.48-9c22.52-1.34,38,12.48,41.11,15.36,6.29,7.16,10.92,12.37,13.31,15.06C256.1,235.45,259.11,238.73,258.54,243.12Z"/><line class="cls-27" x1="227.99" y1="241.89" x2="233.04" y2="221.69"/><line class="cls-28" x1="229.36" y1="236.41" x2="235.41" y2="229.22"/><path class="cls-26" d="M186.09,197.11l1.95-3.17a2.26,2.26,0,0,1,1.37-1,31.78,31.78,0,0,1,9.13-1,32.26,32.26,0,0,1,10.56,2.18,2.4,2.4,0,0,1,1.31,1.31l1.23,2.88a78.17,78.17,0,0,0-25.55-1.16Z"/><path class="cls-31" d="M228.17,412.1l-26.19-11V325.23l-11.76,5.44v70.45l-26.08,11a1.63,1.63,0,0,0,.64,3.13h62.76A1.63,1.63,0,0,0,228.17,412.1Z"/><polygon class="cls-23" points="201.98 320.9 201.98 325.23 190.22 330.67 190.22 320.9 201.98 320.9"/><polygon class="cls-18" points="201.98 320.9 201.98 325.23 190.22 330.67 190.22 320.9 201.98 320.9"/><path class="cls-3" d="M230.86,320.9H161.44a5.31,5.31,0,0,1-5.31-5.31h0a5.32,5.32,0,0,1,5.31-5.32h69.42a5.32,5.32,0,0,1,5.32,5.32h0A5.32,5.32,0,0,1,230.86,320.9Z"/><rect class="cls-2" x="141.75" y="218.52" width="64.24" height="64.24" rx="10.68"/><path class="cls-2" d="M239.4,310.27H151.9a10.18,10.18,0,0,1-10.15-10.15h0A10.18,10.18,0,0,1,151.9,290h87.5a10.18,10.18,0,0,1,10.15,10.15h0A10.18,10.18,0,0,1,239.4,310.27Z"/><path class="cls-3" d="M197.85,320.9H173.78A13.88,13.88,0,0,1,159.91,307V260a5.34,5.34,0,0,1,10.68,0V307a3.19,3.19,0,0,0,3.19,3.19h24.07a5.34,5.34,0,0,1,0,10.68Z"/><rect class="cls-3" x="154.86" y="248.73" width="20.78" height="20.78" rx="3.41"/><line class="cls-28" x1="171.01" y1="251.59" x2="171.01" y2="266.64"/><path class="cls-7" d="M404.8,181.61c-1,8.16-6.39,20.18-15,21.25-10.6,1.3-22.38-14.5-20.88-27.49a18.32,18.32,0,0,1,21.83-16.61,18.05,18.05,0,0,1,9.85,5.47C406.13,170.34,405.18,178.41,404.8,181.61Z"/><path class="cls-7" d="M392.27,211.34c4.44-1.72,6.39-6.67,6.61-10.12,0-.65-.75-3.46-2.34-9-1.24-4.35-1.6-5.5-2.86-6.53a8.12,8.12,0,0,0-6.29-1.36,9.06,9.06,0,0,0-5.33,3.17c-.42.51-1,1.36-2.51,7.93-1.05,4.67-1.17,6.18-1,7.91.13,1.4.1,2.95,1.22,4.29a11.38,11.38,0,0,0,4.32,3.26C385.14,211.3,388.64,212.75,392.27,211.34Z"/><path class="cls-6" d="M371.2,179.85c.47,3,0,5.59-1,5.75s-2.27-2.14-2.75-5.15,0-5.59,1-5.76S370.72,176.83,371.2,179.85Z"/><path class="cls-6" d="M407.26,180.42c-.43,3-1.63,5.35-2.68,5.2s-1.54-2.72-1.11-5.74,1.63-5.35,2.68-5.2S407.69,177.4,407.26,180.42Z"/><path class="cls-14" d="M383.85,396.57v9.74l-19,5.59v3.33h36.9l-1.44-18.66Z"/><polygon class="cls-11" points="367.21 283.1 382.18 396.57 402.5 396.57 402.5 285.01 367.21 283.1"/><path class="cls-25" d="M374,334.38l28.52-12V310.22l-31.7,0Z"/><path class="cls-14" d="M349.64,396.57v9.74l-17.49,5.14a2.12,2.12,0,0,0-1.52,2h0a2.11,2.11,0,0,0,2.11,2.11l34.85.23q-.78-9.94-1.54-19.88Z"/><polygon class="cls-11" points="333.01 283.1 347.98 396.57 368.3 396.57 368.3 285.01 333.01 283.1"/><path class="cls-11" d="M333,283.1a11,11,0,0,0,11,11H416.8a11.17,11.17,0,0,0,8.46-3.86c.54-.62,1.88-2.4,2.64-8.91a59,59,0,0,0,.12-12.37l-84.45,3.19A11,11,0,0,0,333,283.1Z"/><polygon class="cls-25" points="359.03 290.35 341.58 290.35 368.3 333.39 368.17 290.35 359.03 290.35"/><path class="cls-26" d="M440.65,251.5H428.48a154.8,154.8,0,0,1-1.13,23.91h-62q-2.7-11.81-5.41-23.62H321.78c-2.67-10.75,28.93-40.22,28.93-40.22,3.1-2.87,18.59-16.69,41.11-15.35a54.19,54.19,0,0,1,26.49,9S449.74,240.1,440.65,251.5Z"/><line class="cls-28" x1="359.92" y1="251.79" x2="353.68" y2="227.94"/><line class="cls-28" x1="356.8" y1="241.15" x2="351.08" y2="236.88"/><path class="cls-14" d="M370.17,185.6c-15.25,13.23-15.81,35.48-3.92,47.45,10.06,10.13,27.47,11.3,38.23,3.3,13.56-10.1,16-34.39.1-50.73l.79-10.63s2.2-16.7-17.29-18.37c0,0,.71-4.21-7.25-3.38s4.4,3.86,4.4,3.86c-1.74.18-9.82,1.19-13.76,7.5-2,3.27-2.26,6.8-2.46,10.08A33,33,0,0,0,370.17,185.6Z"/><path class="cls-2" d="M427,412.1l-26.19-11V325.23l-11.76,5.44v70.45L363,412.1a1.63,1.63,0,0,0,.64,3.13h62.76A1.63,1.63,0,0,0,427,412.1Z"/><polygon class="cls-23" points="400.81 320.9 400.81 325.23 389.05 330.67 389.05 320.9 400.81 320.9"/><polygon class="cls-18" points="400.81 320.9 400.81 325.23 389.05 330.67 389.05 320.9 400.81 320.9"/><path class="cls-3" d="M360.27,320.9h69.42a5.32,5.32,0,0,0,5.32-5.31h0a5.32,5.32,0,0,0-5.32-5.32H360.27a5.32,5.32,0,0,0-5.31,5.32h0A5.31,5.31,0,0,0,360.27,320.9Z"/><rect class="cls-2" x="385.15" y="218.52" width="64.24" height="64.24" rx="10.68" transform="translate(834.54 501.29) rotate(180)"/><path class="cls-2" d="M351.73,310.27h87.51a10.18,10.18,0,0,0,10.15-10.15h0A10.18,10.18,0,0,0,439.24,290H351.73a10.18,10.18,0,0,0-10.15,10.15h0A10.18,10.18,0,0,0,351.73,310.27Z"/><path class="cls-3" d="M393.29,320.9h24.07A13.88,13.88,0,0,0,431.23,307V260a5.34,5.34,0,0,0-10.68,0V307a3.19,3.19,0,0,1-3.19,3.19H393.29a5.34,5.34,0,0,0,0,10.68Z"/><rect class="cls-3" x="415.5" y="248.73" width="20.78" height="20.78" rx="3.41" transform="translate(851.77 518.24) rotate(180)"/><line class="cls-28" x1="420.63" y1="251.79" x2="420.63" y2="266.84"/></g></svg>