<svg width="64" height="64" viewBox="0 0 64 64" fill="none" xmlns="http://www.w3.org/2000/svg">
<circle cx="32" cy="32" r="32" fill="#E1EDFB"/>
<path d="M15.6865 36.2737V26.2508L18.7385 23.7192L20.6807 20.3203L22.4148 23.0255L27.2009 26.9099L31.0853 27.8116L34.831 27.222L39.3743 25.1064L41.49 22.2278L43.4668 20.7016L48.0449 26.2508V36.2737H38.6113H15.6865Z" fill="white"/>
<path d="M22.6312 47.3548C22.405 47.3548 22.1881 47.265 22.0281 47.105C21.8681 46.945 21.7783 46.7281 21.7783 46.5019V37.1193H20.0723V44.7959C20.0723 45.0222 19.9825 45.2391 19.8225 45.3991C19.6626 45.559 19.4456 45.6489 19.2194 45.6489C18.9932 45.6489 18.7762 45.559 18.6162 45.3991C18.4563 45.2391 18.3664 45.0222 18.3664 44.7959V37.1193H12.3957C12.1695 37.1193 11.9525 37.0294 11.7925 36.8695C11.6326 36.7095 11.5427 36.4925 11.5427 36.2663C11.5427 36.0401 11.6326 35.8231 11.7925 35.6632C11.9525 35.5032 12.1695 35.4134 12.3957 35.4134H14.9563V27.4791C14.183 27.83 13.3735 28.0949 12.5424 28.2689C12.3209 28.3135 12.0907 28.269 11.9017 28.1451C11.7127 28.0212 11.5801 27.828 11.5325 27.607C11.4865 27.3856 11.5302 27.155 11.6539 26.9657C11.7777 26.7764 11.9714 26.6439 12.1927 26.5971C13.2378 26.3787 14.2408 25.9928 15.1627 25.4542C15.2725 25.3244 15.4186 25.2305 15.5824 25.1846C16.8818 24.3344 17.9646 23.1923 18.7445 21.8494C19.5243 20.5065 19.9796 19 20.074 17.45C20.0793 17.376 20.0948 17.3031 20.1201 17.2333C20.1685 17.0757 20.2632 16.9362 20.3919 16.8331C20.5206 16.73 20.6773 16.6679 20.8417 16.655C20.8693 16.6499 20.8973 16.647 20.9253 16.6465H20.9509C21.0037 16.6483 21.0559 16.6575 21.1061 16.6738C21.1368 16.6789 21.2 16.6891 21.2699 16.7198C21.2999 16.7345 21.329 16.751 21.3569 16.7693C21.4847 16.8435 21.5909 16.9497 21.6651 17.0774C21.7393 17.2051 21.7789 17.35 21.78 17.4977V17.554C21.8004 20.5002 23.5558 23.4344 26.3655 25.2153C26.4545 25.2508 26.537 25.301 26.6094 25.3638C28.2693 26.3583 30.1373 26.882 32.0138 26.882C37.4659 26.882 42.2494 22.4978 42.2494 17.4994C42.2494 17.3869 42.2715 17.276 42.3159 17.1702C42.337 17.1263 42.3615 17.0841 42.3892 17.044C42.4165 16.9922 42.451 16.9445 42.4916 16.9024C42.5275 16.8669 42.5676 16.836 42.611 16.8103C42.6574 16.773 42.7084 16.742 42.7628 16.7181C42.8242 16.6908 42.8788 16.6823 42.9078 16.6772C42.9632 16.6597 43.0205 16.6494 43.0784 16.6465H43.1023C43.133 16.6465 43.1808 16.6533 43.2183 16.6618C43.2712 16.6687 43.3446 16.6789 43.4264 16.713C43.4627 16.7294 43.4975 16.7488 43.5305 16.771C43.5912 16.8025 43.647 16.8427 43.696 16.8904C43.7369 16.9297 43.7642 16.9723 43.7796 16.9945C43.819 17.0415 43.8517 17.0937 43.8768 17.1497C43.9058 17.2111 43.916 17.2674 43.9229 17.2981C43.9395 17.3467 43.9498 17.3971 43.9536 17.4483C44.0477 18.9997 44.5033 20.5075 45.2841 21.8514C46.0649 23.1953 47.1492 24.338 48.4504 25.188C48.6112 25.2342 48.7552 25.3261 48.8649 25.4525C49.7758 25.9863 50.7665 26.3705 51.7991 26.5903C52.0173 26.6404 52.2071 26.7742 52.3275 26.9629C52.4479 27.1516 52.4893 27.3802 52.4428 27.5991C52.3962 27.8181 52.2654 28.01 52.0786 28.1334C51.8918 28.2568 51.664 28.3018 51.4443 28.2587C50.6287 28.0849 49.8342 27.8235 49.0748 27.4791V35.4134H51.6319C51.8582 35.4134 52.0751 35.5032 52.2351 35.6632C52.395 35.8231 52.4849 36.0401 52.4849 36.2663C52.4849 36.4925 52.395 36.7095 52.2351 36.8695C52.0751 37.0294 51.8582 37.1193 51.6319 37.1193H45.6612V44.7959C45.6612 45.0222 45.5713 45.2391 45.4114 45.3991C45.2514 45.559 45.0345 45.6489 44.8082 45.6489C44.582 45.6489 44.3651 45.559 44.2051 45.3991C44.0451 45.2391 43.9553 45.0222 43.9553 44.7959V37.1193H42.2494V44.7959C42.2494 45.0222 42.1595 45.2391 41.9995 45.3991C41.8396 45.559 41.6226 45.6489 41.3964 45.6489C41.1702 45.6489 40.9532 45.559 40.7933 45.3991C40.6333 45.2391 40.5434 45.0222 40.5434 44.7959V37.1193H23.4842V46.5019C23.4842 46.7281 23.3943 46.945 23.2344 47.105C23.0744 47.265 22.8574 47.3548 22.6312 47.3548ZM47.3688 35.4116V26.5187C45.9895 25.5889 44.8255 24.3743 43.9553 22.9567L43.957 35.4134H47.3688V35.4116ZM42.2511 35.4116L42.2494 23.0232C41.353 24.3877 40.1937 25.5597 38.8392 26.4709V35.4134H42.2511V35.4116ZM37.1333 35.4116V27.4365C36.0518 27.941 34.9024 28.2847 33.7214 28.4566V35.4134H37.1333V35.4116ZM32.0155 35.4116V28.588H32.0138C30.2449 28.5813 28.4989 28.1883 26.8977 27.4365V35.4116H32.0155V35.4116ZM25.1918 35.4116V26.4726C23.8361 25.563 22.676 24.3914 21.78 23.0266V35.4116H25.1918ZM20.074 35.4116V22.9567C19.2054 24.3755 18.0419 25.5909 16.6622 26.5204V35.4134H20.074V35.4116Z" fill="#1E3D60"/>
</svg>
