
<svg  viewBox="0 0 64 64" fill="none" xmlns="http://www.w3.org/2000/svg">
<rect fill="#E1EDFB"/>
<circle cx="32" cy="32" r="32" fill="#E1EDFB"/>
<circle cx="32.0001" cy="31.9996" r="16.7731" fill="white"/>
<path d="M39.1591 35.3316C37.9865 36.1339 35.9189 34.4675 35.024 35.7019C34.1599 36.9054 38.6962 40.5776 40.2083 39.8679C42.7696 38.6644 44.436 36.1648 44.436 35.239C44.4668 34.3441 43.2633 32.5234 39.1591 35.3316Z" fill="#064EA4"/>
<path d="M38.0481 15.1508C36.104 14.441 34.0673 14.1016 31.9998 14.1016C22.1249 14.1016 14.1016 22.1249 14.1016 31.9998C14.1016 41.8747 22.1249 49.898 31.9998 49.898C41.8747 49.898 49.898 41.8747 49.898 31.9998C49.898 24.4702 45.1457 17.6812 38.0481 15.1508ZM31.9998 48.0465C30.7346 48.0465 29.5002 47.8922 28.3276 47.6144V45.5469C28.3276 45.5469 28.3276 45.5469 27.5561 44.7754C26.7846 44.0039 28.3584 42.7078 28.7904 41.0723C29.9939 36.4435 25.9823 36.2583 25.8588 35.24C25.7354 34.0982 27.2166 33.2341 28.1115 32.3392C29.0065 31.4443 29.2842 30.0557 28.8213 29.2533C27.3709 26.5686 23.853 27.9881 23.5136 30.7963C23.3284 32.4935 22.3101 34.2216 21.446 35.1165C20.582 35.9806 18.8847 35.5177 18.4218 34.2525C17.8972 32.833 19.7179 32.3084 19.4402 30.4877C19.3784 29.9939 18.8538 29.7471 18.2058 29.6545L16.0765 29.7162C17.2183 21.9397 23.9147 15.9531 31.9998 15.9531C33.8513 15.9531 35.672 16.2617 37.431 16.8789C37.5235 16.9097 37.6161 16.9406 37.6778 16.9714L37.7395 19.2242C37.7395 20.0573 37.2458 20.8288 36.4743 21.1683C34.7771 21.9089 33.0798 21.5077 32.3701 23.4518C31.7838 24.9331 33.3267 28.9139 35.2091 28.9139C37.5853 28.9139 38.727 24.1307 39.4368 24.1307C39.8997 24.1307 40.6094 25.5811 41.4426 26.6612C41.9981 27.4018 42.8621 27.803 43.7879 27.803H45.3617L47.6144 28.3276C47.8922 29.5311 48.0465 30.7654 48.0465 31.9998C48.0465 40.8563 40.8563 48.0465 31.9998 48.0465Z" fill="#064EA4"/>
<circle cx="31.9998" cy="31.9998" r="16.8982" stroke="#1E3D60" stroke-width="2"/>
</svg>
