
<svg  viewBox="0 0 64 64" fill="none" xmlns="http://www.w3.org/2000/svg">
<rect fill="#E1EDFB"/>
<circle cx="32" cy="32" r="32" fill="#E1EDFB"/>
<path d="M39.975 37.3194C39.0072 38.0498 37.0168 39.5107 36.7978 39.5106V42.0303V44.3312L35.7021 45.7555H30.9908L28.2519 44.879L27.4301 43.5642L27.704 40.2773L25.9507 39.9487L23.1024 36.7713L21.7327 31.8958L22.7189 26.6916L25.9507 22.7473L30.9908 20.7754C32.6525 21.0676 36.1403 21.6519 36.7978 21.6519C37.6196 21.6519 39.975 24.8292 40.4132 25.1579C40.7638 25.4208 41.5819 28.1892 41.9471 29.5405V33.7586L39.975 37.3194Z" fill="white"/>
<path d="M31.9999 18.4311C31.7 18.4311 31.4124 18.312 31.2003 18.0999C30.9883 17.8878 30.8691 17.6002 30.8691 17.3004V15.0389C30.8691 14.739 30.9883 14.4514 31.2003 14.2394C31.4124 14.0273 31.7 13.9082 31.9999 13.9082C32.2997 13.9082 32.5873 14.0273 32.7994 14.2394C33.0114 14.4514 33.1306 14.739 33.1306 15.0389V17.3004C33.1306 17.6002 33.0114 17.8878 32.7994 18.0999C32.5873 18.312 32.2997 18.4311 31.9999 18.4311Z" fill="#064EA4"/>
<path d="M16.1698 31.9997C15.8699 31.9997 15.5823 31.8806 15.3702 31.6685C15.1582 31.4565 15.0391 31.1689 15.0391 30.869C15.0391 30.5691 15.1582 30.2815 15.3702 30.0695C15.5823 29.8574 15.8699 29.7383 16.1698 29.7383H18.4312C18.7311 29.7383 19.0187 29.8574 19.2308 30.0695C19.4428 30.2815 19.5619 30.5691 19.5619 30.869C19.5619 31.1689 19.4428 31.4565 19.2308 31.6685C19.0187 31.8806 18.7311 31.9997 18.4312 31.9997H16.1698Z" fill="#064EA4"/>
<path d="M21.2206 22.2866C20.9283 22.2873 20.6471 22.1743 20.4366 21.9715L18.7782 20.378C18.617 20.2211 18.506 20.0198 18.4595 19.7996C18.413 19.5795 18.4331 19.3505 18.5172 19.1418C18.6012 18.9331 18.7455 18.7541 18.9316 18.6276C19.1177 18.5012 19.3372 18.4329 19.5622 18.4316C19.8562 18.4316 20.1336 18.5432 20.3462 18.7467L22.0046 20.3403C22.1121 20.443 22.1982 20.566 22.2581 20.7021C22.3179 20.8382 22.3502 20.9848 22.3532 21.1335C22.3561 21.2822 22.3296 21.43 22.2752 21.5683C22.2208 21.7067 22.1396 21.833 22.0362 21.9399C21.9303 22.0492 21.8036 22.1362 21.6635 22.1958C21.5234 22.2553 21.3728 22.2862 21.2206 22.2866V22.2866Z" fill="#064EA4"/>
<path d="M45.5687 31.9997C45.2688 31.9997 44.9812 31.8806 44.7692 31.6685C44.5571 31.4565 44.438 31.1689 44.438 30.869C44.438 30.5691 44.5571 30.2815 44.7692 30.0695C44.9812 29.8574 45.2688 29.7383 45.5687 29.7383H47.8301C48.13 29.7383 48.4176 29.8574 48.6297 30.0695C48.8417 30.2815 48.9609 30.5691 48.9609 30.869C48.9609 31.1689 48.8417 31.4565 48.6297 31.6685C48.4176 31.8806 48.13 31.9997 47.8301 31.9997H45.5687Z" fill="#064EA4"/>
<path d="M42.7792 22.2854C42.5539 22.2849 42.3339 22.2171 42.1473 22.0907C41.9607 21.9644 41.8161 21.7853 41.7319 21.5762C41.6477 21.3672 41.6278 21.1379 41.6747 20.9175C41.7216 20.6971 41.8332 20.4957 41.9953 20.3391L43.6537 18.7455C43.7604 18.642 43.8867 18.5606 44.0251 18.5061C44.1635 18.4516 44.3113 18.425 44.4601 18.428C44.6088 18.4309 44.7555 18.4633 44.8916 18.5232C45.0277 18.5832 45.1507 18.6695 45.2533 18.7772C45.4609 18.9936 45.5743 19.2836 45.5683 19.5835C45.5624 19.8835 45.4377 20.1687 45.2216 20.3768L43.5632 21.9704C43.3524 22.1727 43.0715 22.2857 42.7792 22.2854Z" fill="#064EA4"/>
<path d="M31.9997 50.0915C31.6998 50.0915 31.4122 49.9723 31.2002 49.7603C30.9881 49.5482 30.869 49.2606 30.869 48.9608V46.6993H29.7383C28.8389 46.6985 27.9765 46.3409 27.3405 45.7049C26.7046 45.0689 26.3469 44.2066 26.3461 43.3072V40.6568C22.8499 38.6863 20.6413 34.8795 20.6925 30.8602C20.7323 27.8778 21.9339 25.0285 24.0418 22.9183C26.1498 20.8081 28.9977 19.6035 31.9801 19.5605C38.2307 19.6706 43.1969 24.6292 43.3069 30.8481C43.3597 34.8735 41.1525 38.6848 37.6533 40.6568V43.3072C37.6525 44.2066 37.2949 45.0689 36.6589 45.7049C36.0229 46.3409 35.1606 46.6985 34.2612 46.6993H33.1304V48.9608C33.1304 49.2606 33.0113 49.5482 32.7993 49.7603C32.5872 49.9723 32.2996 50.0915 31.9997 50.0915ZM28.6076 43.3072C28.6076 43.9313 29.1141 44.4379 29.7383 44.4379H34.2612C34.561 44.4379 34.8486 44.3187 35.0607 44.1067C35.2727 43.8946 35.3919 43.607 35.3919 43.3072V41.0457H28.6076V43.3072ZM36.3764 38.7843C37.7997 38.0168 38.9866 36.8756 39.8094 35.4835C40.6321 34.0915 41.0595 32.5013 41.0455 30.8843C41.0104 28.4914 40.0439 26.2064 38.3512 24.5145C36.6586 22.8227 34.3731 21.8574 31.9801 21.8235C29.5911 21.8641 27.312 22.8343 25.6267 24.528C23.9414 26.2218 22.9826 28.5057 22.954 30.8949C22.9415 32.5101 23.3697 34.0982 24.1923 35.4883C25.015 36.8784 26.2011 38.0179 27.6231 38.7843H30.869V34.7303L27.8085 31.6698C27.7029 31.5651 27.6191 31.4405 27.5619 31.3032C27.5046 31.166 27.4752 31.0187 27.4752 30.87C27.4752 30.7213 27.5046 30.574 27.5619 30.4368C27.6191 30.2995 27.7029 30.1749 27.8085 30.0702C28.0211 29.8561 28.306 29.7385 28.6076 29.7385C28.9091 29.7385 29.194 29.8561 29.4066 30.0702L31.9997 32.6633L34.5928 30.0702C34.6972 29.9643 34.8216 29.8801 34.9588 29.8227C35.0959 29.7653 35.2432 29.7357 35.3919 29.7357C35.5406 29.7357 35.6878 29.7653 35.825 29.8227C35.9622 29.8801 36.0865 29.9643 36.1909 30.0702C36.405 30.2828 36.5226 30.5677 36.5226 30.8692C36.5226 31.1708 36.405 31.4557 36.1909 31.6683L33.1304 34.7288V38.7843H36.3764Z" fill="#1E3D60"/>
</svg>
