
<svg width="143" height="20" viewBox="0 0 143 20" fill="none" xmlns="http://www.w3.org/2000/svg">
<path d="M10.4666 16.6833L15.6975 19.8403C16.5228 20.3383 17.5407 19.5982 17.3218 18.6603L15.9333 12.7094L20.5557 8.70494C21.2841 8.07438 20.8946 6.87747 19.9346 6.79641L13.85 6.28059L11.4699 0.664474C11.0941 -0.22084 9.83925 -0.22084 9.46343 0.664474L7.0833 6.28059L0.998731 6.79641C0.0386751 6.87747 -0.350821 8.07438 0.377642 8.70494L5.00002 12.7094L3.61151 18.6603C3.39255 19.5982 4.41051 20.3383 5.23582 19.8403L10.4666 16.6833Z" fill="#FCDF69"/>
<path d="M40.7822 16.6828L46.013 19.8398C46.8383 20.3378 47.8563 19.5977 47.6373 18.6598L46.2488 12.7089L50.8712 8.70445C51.5997 8.07389 51.2102 6.87698 50.2501 6.79592L44.1656 6.2801L41.7854 0.663986C41.4096 -0.221329 40.1548 -0.221329 39.779 0.663986L37.3988 6.2801L31.3143 6.79592C30.3542 6.87698 29.9647 8.07389 30.6932 8.70445L35.3156 12.7089L33.9271 18.6598C33.7081 19.5977 34.7261 20.3378 35.5514 19.8398L40.7822 16.6828Z" fill="#FCDF69"/>
<path d="M71.0978 16.6828L76.3286 19.8398C77.1539 20.3378 78.1719 19.5977 77.9529 18.6598L76.5644 12.7089L81.1868 8.70445C81.9152 8.07389 81.5257 6.87698 80.5657 6.79592L74.4811 6.2801L72.101 0.663986C71.7252 -0.221329 70.4704 -0.221329 70.0946 0.663986L67.7144 6.2801L61.6298 6.79592C60.6698 6.87698 60.2803 8.07389 61.0088 8.70445L65.6311 12.7089L64.2426 18.6598C64.0237 19.5977 65.0416 20.3378 65.8669 19.8398L71.0978 16.6828Z" fill="#FCDF69"/>
<path d="M101.413 16.6828L106.644 19.8398C107.469 20.3378 108.487 19.5977 108.268 18.6598L106.88 12.7089L111.502 8.70445C112.231 8.07389 111.841 6.87698 110.881 6.79592L104.797 6.2801L102.417 0.663986C102.041 -0.221329 100.786 -0.221329 100.41 0.663986L98.03 6.2801L91.9454 6.79592C90.9854 6.87698 90.5959 8.07389 91.3243 8.70445L95.9467 12.7089L94.5582 18.6598C94.3392 19.5977 95.3572 20.3378 96.1825 19.8398L101.413 16.6828Z" fill="#FCDF69"/>
<path d="M131.729 16.6828L136.96 19.8398C137.785 20.3378 138.803 19.5977 138.584 18.6598L137.195 12.7089L141.818 8.70445C142.546 8.07389 142.157 6.87698 141.197 6.79592L135.112 6.2801L132.732 0.663986C132.356 -0.221329 131.101 -0.221329 130.726 0.663986L128.345 6.2801L122.261 6.79592C121.301 6.87698 120.911 8.07389 121.64 8.70445L126.262 12.7089L124.874 18.6598C124.655 19.5977 125.673 20.3378 126.498 19.8398L131.729 16.6828Z" fill="#FCDF69"/>
</svg>
